<svg width="24" height="24" viewBox="0 0 24 24" fill="none" xmlns="http://www.w3.org/2000/svg">
<path d="M12.8934 6.7824L12.9017 6.76664C12.9104 6.75047 12.9251 6.72331 12.9461 6.68675C12.988 6.61348 13.0542 6.50327 13.1444 6.36843C13.3259 6.0971 13.5987 5.7354 13.9605 5.37621C14.6883 4.65363 15.7116 4 17.0477 4C19.2102 4 20.9765 5.81959 20.9995 8.05189C21.0502 13.1309 16.9969 16.8935 12 20.2975C7.00267 16.8935 2.94948 13.131 3.00048 8.05217L12 6.33316C12.8944 6.78037 12.8943 6.78071 12.8941 6.78104L12.8938 6.78164L12.8934 6.7824ZM12.8934 6.7824C12.8928 6.78358 12.8926 6.78402 12.8928 6.78369L12.8933 6.78261L12.8934 6.7824Z" stroke="#020166" stroke-width="2" stroke-linecap="round" stroke-linejoin="round"/>
</svg>
