<svg width="10" height="10" viewBox="0 0 10 10" fill="none" xmlns="http://www.w3.org/2000/svg">
<path fill-rule="evenodd" clip-rule="evenodd" d="M1.26469 0.646447C1.06942 0.451184 0.752842 0.451184 0.557579 0.646447C0.362317 0.841709 0.362317 1.15829 0.557579 1.35355L4.31527 5.11125L0.557654 8.86887C0.362392 9.06413 0.362392 9.38071 0.557653 9.57597C0.752915 9.77123 1.0695 9.77123 1.26476 9.57597L5.02241 5.81833L8.78005 9.57597C8.97532 9.77124 9.2919 9.77124 9.48716 9.57597C9.68242 9.38071 9.68242 9.06413 9.48716 8.86887L5.72947 5.11117L9.48709 1.35355C9.68235 1.15829 9.68235 0.841709 9.48709 0.646447C9.29182 0.451184 8.97524 0.451184 8.77998 0.646447L5.02233 4.40409L1.26469 0.646447Z" fill="#5A5A89" fill-opacity="0.5"/>
</svg>
