<svg width="16" height="16" viewBox="0 0 16 16" fill="none" xmlns="http://www.w3.org/2000/svg">
<path fill-rule="evenodd" clip-rule="evenodd" d="M1.70711 0.292893C1.31658 -0.0976311 0.683417 -0.0976311 0.292893 0.292893C-0.0976311 0.683418 -0.0976311 1.31658 0.292893 1.70711L6.2288 7.64302L0.292985 13.5788C-0.0975389 13.9694 -0.097539 14.6025 0.292985 14.993C0.68351 15.3836 1.31667 15.3836 1.7072 14.993L7.64305 9.0572L13.5789 14.993C13.9694 15.3836 14.6026 15.3836 14.9931 14.993C15.3836 14.6025 15.3836 13.9694 14.9931 13.5788L9.0572 7.64292L14.993 1.70711C15.3835 1.31658 15.3835 0.683418 14.993 0.292893C14.6025 -0.0976311 13.9693 -0.0976311 13.5788 0.292893L7.64296 6.22874L1.70711 0.292893Z" fill="#5A5A89"/>
</svg>
