<svg width="20" height="19" viewBox="0 0 20 19" fill="none" xmlns="http://www.w3.org/2000/svg">
<path d="M10.8934 3.7824L10.9017 3.76664C10.9104 3.75047 10.9251 3.72331 10.9461 3.68675C10.988 3.61348 11.0542 3.50327 11.1444 3.36843C11.3259 3.0971 11.5987 2.7354 11.9605 2.37621C12.6883 1.65363 13.7116 1 15.0477 1C17.2102 1 18.9765 2.81959 18.9995 5.05189C19.0502 10.1309 14.9969 13.8935 10 17.2975C5.00267 13.8935 0.949483 10.131 1.00048 5.05217L10 3.33316C10.8944 3.78037 10.8943 3.78071 10.8941 3.78104L10.8938 3.78164L10.8934 3.7824ZM10.8934 3.7824C10.8928 3.78358 10.8926 3.78402 10.8928 3.78369L10.8933 3.78261L10.8934 3.7824Z" stroke="#020166" stroke-width="2" stroke-linecap="round" stroke-linejoin="round"/>
</svg>
