<svg width="20" height="19" viewBox="0 0 20 19" fill="none" xmlns="http://www.w3.org/2000/svg">
<path d="M9.10658 3.7824L9.1067 3.78261L9.10725 3.78369L9.10658 3.7824ZM9.10658 3.7824L9.09829 3.76664C9.08965 3.75047 9.07486 3.72331 9.05393 3.68675C9.01199 3.61348 8.94586 3.50326 8.85564 3.36843C8.67411 3.0971 8.40128 2.7354 8.03951 2.37621C7.31173 1.65363 6.28846 1 4.95235 1C2.78979 1 1.02347 2.81964 1.00048 5.05198L9.10658 3.7824ZM15.0477 1C13.7116 1 12.6883 1.65363 11.9605 2.37621C11.5987 2.7354 11.3259 3.0971 11.1444 3.36843C11.0542 3.50327 10.988 3.61348 10.9461 3.68675C10.9251 3.72331 10.9104 3.75047 10.9017 3.76664L10.8934 3.7824M15.0477 1L9.10558 3.78037C9.27497 4.11915 9.62123 4.33316 10 4.33316C10.3785 4.33316 10.7246 4.11944 10.8941 3.78104L10.8938 3.78164L10.8934 3.7824M15.0477 1C17.2102 1 18.9765 2.81959 18.9995 5.05189C19.0502 10.1309 14.9969 13.8935 10 17.2975C5.00267 13.8935 0.949483 10.131 1.00048 5.05217L15.0477 1ZM10.8934 3.7824L10.8933 3.78261L10.8928 3.78368M10.8934 3.7824C10.8931 3.78306 10.8929 3.78349 10.8928 3.78368M10.8928 3.78368L10.8928 3.78369C10.8927 3.78382 10.8927 3.78383 10.8928 3.78371C10.8928 3.7837 10.8928 3.78369 10.8928 3.78368Z" stroke="#020166" stroke-width="2" stroke-linecap="round" stroke-linejoin="round"/>
</svg>
